<svg width="21" height="21" viewBox="0 0 21 21" fill="none" xmlns="http://www.w3.org/2000/svg">
<path d="M4.60682 9.15556C6.20682 12.3 8.7846 14.8667 11.929 16.4778L14.3735 14.0333C14.6735 13.7333 15.1179 13.6333 15.5068 13.7667C16.7513 14.1778 18.0957 14.4 19.4735 14.4C20.0846 14.4 20.5846 14.9 20.5846 15.5111V19.3889C20.5846 20 20.0846 20.5 19.4735 20.5C9.04015 20.5 0.584595 12.0444 0.584595 1.61111C0.584595 1 1.08459 0.5 1.69571 0.5H5.58459C6.19571 0.5 6.69571 1 6.69571 1.61111C6.69571 3 6.91793 4.33333 7.32904 5.57778C7.45126 5.96667 7.36237 6.4 7.05126 6.71111L4.60682 9.15556Z" fill="white"/>
</svg>
