<svg width="33" height="33" viewBox="0 0 33 33" fill="none" xmlns="http://www.w3.org/2000/svg">
<path d="M26.0875 25.2587C25.665 23.9587 24.4463 23 23 23H21.375V18.125C21.375 17.694 21.2038 17.2807 20.899 16.976C20.5943 16.6712 20.181 16.5 19.75 16.5H10V13.25H13.25C13.681 13.25 14.0943 13.0788 14.399 12.774C14.7038 12.4693 14.875 12.056 14.875 11.625V8.375H18.125C18.987 8.375 19.8136 8.03259 20.4231 7.4231C21.0326 6.8136 21.375 5.98695 21.375 5.125V4.45875C23.3193 5.24259 25.0447 6.4859 26.4034 8.08223C27.7622 9.67857 28.714 11.5804 29.1772 13.6249C29.6404 15.6694 29.6013 17.7957 29.0632 19.8218C28.5251 21.8479 27.5041 23.7135 26.0875 25.2587ZM14.875 29.3862C8.45625 28.59 3.5 23.13 3.5 16.5C3.5 15.4925 3.63 14.5175 3.84125 13.5913L11.625 21.375V23C11.625 23.862 11.9674 24.6886 12.5769 25.2981C13.1864 25.9076 14.013 26.25 14.875 26.25M16.5 0.25C14.366 0.25 12.2529 0.670319 10.2814 1.48696C8.30985 2.3036 6.51847 3.50056 5.00951 5.00951C1.96205 8.05698 0.25 12.1902 0.25 16.5C0.25 20.8098 1.96205 24.943 5.00951 27.9905C6.51847 29.4994 8.30985 30.6964 10.2814 31.513C12.2529 32.3297 14.366 32.75 16.5 32.75C20.8098 32.75 24.943 31.038 27.9905 27.9905C31.038 24.943 32.75 20.8098 32.75 16.5C32.75 14.366 32.3297 12.2529 31.513 10.2814C30.6964 8.30985 29.4994 6.51847 27.9905 5.00951C26.4815 3.50056 24.6901 2.3036 22.7186 1.48696C20.7471 0.670319 18.634 0.25 16.5 0.25Z" fill="#FFF5F5"/>
</svg>
