<svg width="39" height="29" viewBox="0 0 39 29" fill="none" xmlns="http://www.w3.org/2000/svg">
<path d="M11.7 14.5C15.472 14.5 18.525 11.4666 18.525 7.71875C18.525 3.9709 15.472 0.9375 11.7 0.9375C7.92797 0.9375 4.875 3.9709 4.875 7.71875C4.875 11.4666 7.92797 14.5 11.7 14.5ZM16.38 16.4375H15.8742C14.6067 17.043 13.1991 17.4062 11.7 17.4062C10.2009 17.4062 8.79938 17.043 7.52578 16.4375H7.02C3.14438 16.4375 0 19.5617 0 23.4125V25.1562C0 26.7607 1.31016 28.0625 2.925 28.0625H20.475C22.0898 28.0625 23.4 26.7607 23.4 25.1562V23.4125C23.4 19.5617 20.2556 16.4375 16.38 16.4375ZM29.25 14.5C32.4797 14.5 35.1 11.8965 35.1 8.6875C35.1 5.47852 32.4797 2.875 29.25 2.875C26.0203 2.875 23.4 5.47852 23.4 8.6875C23.4 11.8965 26.0203 14.5 29.25 14.5ZM32.175 16.4375H31.9434C31.0964 16.7281 30.2006 16.9219 29.25 16.9219C28.2994 16.9219 27.4036 16.7281 26.5566 16.4375H26.325C25.0819 16.4375 23.9363 16.7947 22.9308 17.3699C24.4177 18.9623 25.35 21.0754 25.35 23.4125V25.7375C25.35 25.8707 25.3195 25.9979 25.3134 26.125H36.075C37.6898 26.125 39 24.8232 39 23.2188C39 19.4709 35.947 16.4375 32.175 16.4375Z" fill="#FFFEFE"/>
</svg>
